<?xml version="1.0" encoding="UTF-8"?>
<svg width="348px" height="120px" viewBox="0 0 348 120" version="1.1" xmlns="http://www.w3.org/2000/svg" xmlns:xlink="http://www.w3.org/1999/xlink">
    <!-- Generator: Sketch 62 (91390) - https://sketch.com -->
    <title>kraka advisory logo@3x</title>
    <desc>Created with Sketch.</desc>
    <g id="kraka-advisory-logo" stroke="none" stroke-width="1" fill="none" fill-rule="evenodd">
        <g id="Group">
            <g id="Logo" transform="translate(218.000000, 0.000000)" fill="#000000">
                <polyline id="Fill-1" points="16.1393113 21.286745 26.8336401 10.8668317 17.6190545 10.8668317 7.80574403 21.0687882 7.80574403 0.0648374105 0.0170689104 0.0648374105 0.0170689104 39.2209179 7.80574403 39.2209179 7.80574403 29.4601271 10.8190632 26.5518474 18.6077383 39.2209179 28.0389678 39.2209179 16.1393113 21.286745"></polyline>
                <path d="M70.5536847,32.914612 L70.5536847,18.1631344 C70.5536847,16.4444264 70.1689777,15.0657837 69.4008767,14.0193282 C68.6340887,12.9794376 67.6480309,12.1653819 66.4400772,11.582413 C65.2360626,10.996818 63.8981226,10.6029201 62.4367613,10.4020321 C60.9753999,10.2011442 59.5297945,10.1000437 58.102571,10.1000437 C57.5563659,10.1000437 57.0127867,10.1263036 56.4652686,10.1656934 L46.8016393,19.5877319 L52.5643661,19.5877319 C52.7101083,18.05153 53.2221756,16.9564937 54.099255,16.2960582 C54.9776474,15.6408746 56.1842881,15.3086874 57.719177,15.3086874 C58.4150634,15.3086874 59.063682,15.3559551 59.6650328,15.4478647 C60.2690096,15.5384612 60.7994589,15.7209672 61.2563805,15.9980088 C61.7133021,16.2671724 62.0796271,16.6531923 62.3540427,17.1495037 C62.6284583,17.6405632 62.7663225,18.3101896 62.7663225,19.1518182 C62.8030863,19.95537 62.5641216,20.5672248 62.0533673,20.9860696 C61.5413,21.4075404 60.8441006,21.7292237 59.9696472,21.9458676 C59.0925678,22.1651374 58.0868151,22.3318875 56.952389,22.440866 C55.817963,22.5498444 54.6651551,22.6942736 53.4965912,22.8794057 C52.3280273,23.0605987 51.1660284,23.3100674 50.0145335,23.6186208 C48.8630385,23.9298001 47.8402169,24.3959127 46.9447556,25.0156454 C46.0466683,25.6393172 45.3153311,26.4717548 44.7507441,27.5129583 C44.1822181,28.5567879 43.9012376,29.8776589 43.9012376,31.4887015 C43.9012376,32.9513758 44.1480803,34.2118492 44.6404527,35.2727476 C45.1341381,36.336272 45.8182075,37.2120384 46.6965999,37.9039858 C47.5736793,38.6011851 48.5991269,39.1106265 49.7676908,39.4401877 C50.9362546,39.768436 52.198041,39.9351861 53.5543629,39.9351861 C55.3058957,39.9351861 57.0259167,39.6791525 58.7078608,39.1670852 C60.388492,38.6550178 61.8524793,37.7608695 63.0945708,36.4807013 C63.1300216,36.9533788 63.1943583,37.4194913 63.2875808,37.8777259 C63.3768643,38.3333345 63.4963467,38.7823782 63.6420889,39.2209179 L71.5397425,39.2209179 C71.1734174,38.6379489 70.9186967,37.7608695 70.7729545,36.5883667 C70.6258993,35.4198028 70.5536847,34.1947803 70.5536847,32.914612 M62.7663225,28.2547994 C62.7663225,28.6920261 62.7190548,29.2776211 62.6284583,30.0089582 C62.5365487,30.7376694 62.288393,31.4624416 61.8879301,32.1767099 C61.4861543,32.8870391 60.8664215,33.5028329 60.0234799,34.0122742 C59.1831643,34.5230285 57.9949056,34.7777492 56.4600166,34.7777492 C55.8350319,34.7777492 55.2336811,34.7239165 54.6493991,34.616251 C54.0638042,34.5046466 53.5543629,34.3116366 53.1145102,34.0411601 C52.6759705,33.7654315 52.3280273,33.3886025 52.0706807,32.914612 C51.813334,32.4393085 51.6872867,31.8550265 51.6872867,31.1591402 C51.6872867,30.429116 51.813334,29.8264522 52.0706807,29.3498357 C52.3280273,28.8758452 52.6654666,28.4806343 53.0843114,28.1720809 C53.5057821,27.8595885 53.9994675,27.6114328 54.5679936,27.4289268 C55.1325806,27.2490467 55.7089846,27.0993655 56.2945795,26.9903871 C56.9156252,26.8840346 57.536671,26.7908121 58.1603427,26.7146585 C58.7800755,26.6476959 59.3735483,26.5518474 59.9394484,26.4428689 C60.5079744,26.3365165 61.0384236,26.1947133 61.532109,26.0332151 C62.0257944,25.867778 62.4367613,25.6393172 62.7663225,25.3491457 L62.7663225,28.2547994" id="Fill-2"></path>
                <polyline id="Fill-3" points="101.374885 10.8668317 92.1616122 10.8668317 82.3456758 21.0687882 82.3456758 0.0648374105 74.5570006 0.0648374105 74.5570006 39.2209179 82.3456758 39.2209179 82.3456758 29.4601271 85.3616209 26.5518474 93.148983 39.2209179 102.581526 39.2209179 90.680556 21.286745 101.374885 10.8668317"></polyline>
                <path d="M128.245289,36.5883667 C128.098234,35.4198028 128.026019,34.1947803 128.026019,32.914612 L128.026019,18.1631344 C128.026019,16.4444264 127.641312,15.0657837 126.874524,14.0193282 C126.106423,12.9794376 125.120365,12.1653819 123.915038,11.582413 C122.705771,10.996818 121.369144,10.6029201 119.911722,10.4020321 C118.447734,10.2011442 117.002129,10.1000437 115.577531,10.1000437 C114.527137,10.1000437 113.480681,10.1761973 112.435539,10.3153746 L102.926843,19.5877319 L110.039326,19.5877319 C110.185069,18.05153 110.695823,16.9564937 111.572902,16.2960582 C112.452608,15.6408746 113.659248,15.3086874 115.192824,15.3086874 C115.890024,15.3086874 116.537329,15.3559551 117.139993,15.4478647 C117.74397,15.5384612 118.274419,15.7209672 118.731341,15.9980088 C119.188262,16.2671724 119.554587,16.6531923 119.82769,17.1495037 C120.103419,17.6405632 120.241283,18.3101896 120.241283,19.1518182 C120.274108,19.95537 120.039082,20.5672248 119.527015,20.9860696 C119.013634,21.4075404 118.320374,21.7292237 117.440669,21.9458676 C116.564902,22.1651374 115.559149,22.3318875 114.424723,22.440866 C113.292923,22.5498444 112.140115,22.6942736 110.971551,22.8794057 C109.800362,23.0605987 108.639676,23.3100674 107.488181,23.6186208 C106.337999,23.9298001 105.311238,24.3959127 104.41709,25.0156454 C103.520316,25.6393172 102.790291,26.4717548 102.224391,27.5129583 C101.655865,28.5567879 101.374885,29.8776589 101.374885,31.4887015 C101.374885,32.9513758 101.620415,34.2118492 102.115413,35.2727476 C102.606472,36.336272 103.293168,37.2120384 104.170247,37.9039858 C105.04864,38.6011851 106.071461,39.1106265 107.242651,39.4401877 C108.411215,39.768436 109.673001,39.9351861 111.025384,39.9351861 C112.77823,39.9351861 114.498251,39.6791525 116.181508,39.1670852 C117.860826,38.6550178 119.323501,37.7608695 120.568218,36.4807013 C120.604982,36.9533788 120.668006,37.4194913 120.758602,37.8777259 C120.851825,38.3333345 120.971307,38.7823782 121.115736,39.2209179 L129.014703,39.2209179 C128.648378,38.6379489 128.393657,37.7608695 128.245289,36.5883667 M120.241283,28.2547994 C120.241283,28.6920261 120.192702,29.2776211 120.103419,30.0089582 C120.011509,30.7376694 119.763353,31.4624416 119.361577,32.1767099 C118.958489,32.8870391 118.337443,33.5028329 117.497127,34.0122742 C116.654186,34.5230285 115.468553,34.7777492 113.931038,34.7777492 C113.311305,34.7777492 112.706015,34.7239165 112.121733,34.616251 C111.537452,34.5046466 111.025384,34.3116366 110.586845,34.0411601 C110.148305,33.7654315 109.800362,33.3886025 109.544328,32.914612 C109.288294,32.4393085 109.162247,31.8550265 109.162247,31.1591402 C109.162247,30.429116 109.288294,29.8264522 109.544328,29.3498357 C109.800362,28.8758452 110.139114,28.4806343 110.559272,28.1720809 C110.980742,27.8595885 111.471802,27.6114328 112.040328,27.4289268 C112.607541,27.2490467 113.182632,27.0993655 113.768227,26.9903871 C114.38796,26.8840346 115.011631,26.7908121 115.632677,26.7146585 C116.253723,26.6476959 116.848509,26.5518474 117.414409,26.4428689 C117.980309,26.3365165 118.513384,26.1947133 119.005756,26.0332151 C119.500755,25.867778 119.911722,25.6393172 120.241283,25.3491457 L120.241283,28.2547994" id="Fill-4"></path>
                <path d="M37.3704098,20.1825178 C37.3704098,20.1825178 37.3927307,20.143128 37.4741363,20.0367756 C37.4833272,20.0249586 37.4898922,20.0131417 37.4990832,19.9973858 C37.6776502,19.7557951 37.8785382,19.5312732 38.0912431,19.3185683 C39.1363856,18.1696994 41.6428894,15.6027978 47.5841832,10.1013567 L44.6050019,10.1013567 C44.6036889,10.1013567 44.6023759,10.0987307 44.5997499,10.0987307 C44.5971239,10.0987307 44.5918719,10.1013567 44.5905589,10.1013567 L44.581368,10.1013567 C43.6005621,10.1013567 42.6565201,10.2497249 41.7518678,10.5398964 C40.8353986,10.8340069 39.9753882,11.2423477 39.1731494,11.771484 C38.3682846,12.3045592 37.6553293,12.9426738 37.0329706,13.6937059 C36.4106119,14.4421119 35.9169265,15.2548547 35.5532274,16.1332471 L35.4442489,16.1332471 L35.4442489,10.8668317 L28.0389678,10.8668317 L28.0389678,39.2209179 L35.8250169,39.2209179 L35.8250169,26.4428689 C35.8250169,25.1627007 35.9550033,23.9744419 36.2110369,22.8780927 C36.4473757,21.861836 36.8386476,20.9690007 37.3743488,20.1890828 L37.3704098,20.1825178" id="Fill-5"></path>
            </g>
            <path d="M13.3887734,101.663202 L17.6299376,89.0644491 L40.2079002,89.0644491 L44.1580042,101.663202 L58.045738,101.663202 L36.3409563,40.3742204 L21.8711019,40.3742204 L-1.45519152e-11,101.663202 L13.3887734,101.663202 Z M35.6320166,78.5031185 L20.0810811,78.5031185 L27.981289,54.3866944 L35.6320166,78.5031185 Z M77.7484407,103.076923 C80.963964,103.076923 83.6528067,102.467082 85.8149688,101.247401 C87.977131,100.02772 89.9036729,98.0734581 91.5945946,95.3846154 L91.5945946,95.3846154 L91.5945946,101.663202 L103.112266,101.663202 L103.112266,40.4573805 L91.0956341,40.4573805 L91.0956341,62.0790021 C89.7650728,59.9445599 88.032571,58.2744283 85.8981289,57.0686071 C83.7636868,55.8627859 81.3243243,55.2598753 78.5800416,55.2598753 C72.6202356,55.2598753 67.8593209,57.4774775 64.2972973,61.9126819 C60.7352737,66.3478863 58.954262,72.4324324 58.954262,80.1663202 C58.954262,86.8745669 60.7629938,92.3700624 64.3804574,96.6528067 C67.997921,100.935551 72.4539155,103.076923 77.7484407,103.076923 Z M81.1580042,93.0977131 C77.8038808,93.0977131 75.3021483,91.8433818 73.6528067,89.3347193 C72.003465,86.8260568 71.1787942,83.4788635 71.1787942,79.2931393 C71.1787942,75.4123354 71.989605,72.1621622 73.6112266,69.5426195 C75.2328482,66.9230769 77.7761608,65.6133056 81.2411642,65.6133056 C83.5142065,65.6133056 85.5100485,66.3340263 87.2286902,67.7754678 C90.028413,70.1593902 91.4282744,74.1233541 91.4282744,79.6673597 C91.4282744,83.6313236 90.5550936,86.8607069 88.8087318,89.3555094 C87.0623701,91.8503119 84.5121275,93.0977131 81.1580042,93.0977131 Z M136.205821,101.663202 L152.546778,56.3409563 L139.823285,56.3409563 L130.176715,89.7713098 L120.738046,56.3409563 L107.432432,56.3409563 L123.690229,101.663202 L136.205821,101.663202 Z M169.424116,50.9355509 L169.424116,40 L157.407484,40 L157.407484,50.9355509 L169.424116,50.9355509 Z M169.424116,101.663202 L169.424116,56.3409563 L157.407484,56.3409563 L157.407484,101.663202 L169.424116,101.663202 Z M194.987526,103.201663 C201.972973,103.201663 207.135828,101.781012 210.476091,98.9397089 C213.816355,96.0984061 215.486486,92.4324324 215.486486,87.9417879 C215.486486,84.5322245 214.322245,81.6909217 211.993763,79.4178794 C209.637561,77.1725572 206.103257,75.4954955 201.390852,74.3866944 C194.322245,72.8343728 190.205821,71.7394317 189.04158,71.1018711 C187.877339,70.4920305 187.295218,69.5079695 187.295218,68.1496881 C187.295218,67.0686071 187.842689,66.1261261 188.93763,65.3222453 C190.032571,64.5183645 191.869023,64.1164241 194.446985,64.1164241 C197.579349,64.1164241 199.796951,64.9203049 201.099792,66.5280665 C201.792793,67.4151074 202.222453,68.6209286 202.388773,70.1455301 L202.388773,70.1455301 L214.239085,70.1455301 C213.712405,64.6015246 211.668053,60.6999307 208.106029,58.4407484 C204.544006,56.1815662 199.935551,55.0519751 194.280665,55.0519751 C188.320859,55.0519751 183.698545,56.5557866 180.413721,59.5634096 C177.128898,62.5710326 175.486486,66.1677062 175.486486,70.3534304 C175.486486,73.9015939 176.539848,76.6181566 178.64657,78.5031185 C180.753292,80.4158004 184.370755,82.009702 189.49896,83.2848233 C196.623008,84.975745 200.739432,86.1677062 201.848233,86.8607069 C202.957034,87.5537076 203.511435,88.5654886 203.511435,89.8960499 C203.511435,91.2820513 202.825364,92.3215523 201.453222,93.014553 C200.081081,93.7075537 198.230769,94.0540541 195.902287,94.0540541 C191.938323,94.0540541 189.22176,93.2640333 187.752599,91.6839917 C186.920998,90.7969508 186.380457,89.3000693 186.130977,87.1933472 L186.130977,87.1933472 L174.114345,87.1933472 C174.114345,91.8503119 175.812197,95.6826057 179.2079,98.6902287 C182.603604,101.697852 187.863479,103.201663 194.987526,103.201663 Z M242.634096,103.243243 C250.423423,103.243243 256.230769,100.880111 260.056133,96.1538462 C263.881497,91.4275814 265.794179,85.7380457 265.794179,79.0852391 C265.794179,72.5433125 263.881497,66.8745669 260.056133,62.0790021 C256.230769,57.2834373 250.423423,54.8856549 242.634096,54.8856549 C234.844768,54.8856549 229.037422,57.2834373 225.212058,62.0790021 C221.386694,66.8745669 219.474012,72.5433125 219.474012,79.0852391 C219.474012,85.7380457 221.386694,91.4275814 225.212058,96.1538462 C229.037422,100.880111 234.844768,103.243243 242.634096,103.243243 Z M242.592516,93.3056133 C239.127512,93.3056133 236.459459,92.0720721 234.588358,89.6049896 C232.717256,87.1379071 231.781705,83.6313236 231.781705,79.0852391 C231.781705,74.5391545 232.717256,71.039501 234.588358,68.5862786 C236.459459,66.1330561 239.127512,64.9064449 242.592516,64.9064449 C246.057519,64.9064449 248.718642,66.1330561 250.575884,68.5862786 C252.433125,71.039501 253.361746,74.5391545 253.361746,79.0852391 C253.361746,83.6313236 252.433125,87.1379071 250.575884,89.6049896 C248.718642,92.0720721 246.057519,93.3056133 242.592516,93.3056133 Z M283.085239,101.663202 L283.085239,80 C283.085239,76.3686764 283.54262,73.6798337 284.45738,71.9334719 C286.092862,68.8288288 289.294525,67.2765073 294.06237,67.2765073 C294.42273,67.2765073 294.893971,67.2903673 295.476091,67.3180873 C296.058212,67.3458073 296.723493,67.4012474 297.471933,67.4844075 L297.471933,67.4844075 L297.471933,55.3430353 C296.945253,55.3153153 296.605683,55.2945253 296.453222,55.2806653 C296.300762,55.2668053 296.113652,55.2598753 295.891892,55.2598753 C292.343728,55.2598753 289.460845,56.1884962 287.243243,58.045738 C285.884962,59.1545392 284.29106,61.2196812 282.461538,64.2411642 L282.461538,64.2411642 L282.461538,56.3409563 L271.151767,56.3409563 L271.151767,101.663202 L283.085239,101.663202 Z M314.650728,120 C319.889813,120 323.382536,118.967429 325.128898,116.902287 C326.87526,114.837145 329.245322,109.50797 332.239085,100.914761 L332.239085,100.914761 L347.790021,56.3409563 L335.191268,56.3409563 L325.835759,89.7713098 L315.939709,56.3409563 L302.758836,56.3409563 L319.390852,103.659044 C319.501733,103.991684 319.259182,104.906445 318.663202,106.403326 C318.067221,107.900208 317.42273,108.884269 316.72973,109.355509 C316.009009,109.85447 315.121968,110.17325 314.068607,110.31185 C313.015246,110.45045 311.906445,110.49203 310.742204,110.43659 L310.742204,110.43659 L309.245322,110.35343 L309.245322,119.83368 C310.520444,119.91684 311.476784,119.96535 312.114345,119.97921 C312.751906,119.99307 313.597367,120 314.650728,120 Z" id="Advisory" fill="#DA5F06" fill-rule="nonzero"></path>
        </g>
    </g>
</svg>